<svg width="110.962" height="19.238" viewBox="0 0 110.962 19.238" xmlns="http://www.w3.org/2000/svg"><g id="svgGroup" stroke-linecap="round" fill-rule="evenodd" font-size="9pt" stroke="#ffffff" stroke-width="0.25mm" fill="#ffffff" style="stroke:#ffffff;stroke-width:0.25mm;fill:#ffffff"><path d="M 19.482 18.994 L 14.758 18.994 L 18.774 0 L 23.499 0 L 22.852 3.04 A 16.521 16.521 0 0 1 22.655 3.871 A 19.402 19.402 0 0 1 22.546 4.266 A 23.588 23.588 0 0 1 22.262 5.193 A 20.831 20.831 0 0 1 22.162 5.487 A 19.486 19.486 0 0 1 21.989 5.965 Q 21.908 6.182 21.829 6.371 A 10.666 10.666 0 0 1 21.777 6.494 L 21.875 6.494 A 4.436 4.436 0 0 1 22.443 5.886 A 3.743 3.743 0 0 1 22.815 5.597 A 3.729 3.729 0 0 1 23.926 5.084 A 4.634 4.634 0 0 1 24.871 4.93 A 5.418 5.418 0 0 1 25.208 4.919 A 5.089 5.089 0 0 1 26.074 4.989 Q 26.543 5.07 26.925 5.246 A 2.701 2.701 0 0 1 27.301 5.457 A 3.184 3.184 0 0 1 28.479 6.885 A 4.796 4.796 0 0 1 28.838 8.373 A 5.769 5.769 0 0 1 28.857 8.85 A 11.915 11.915 0 0 1 28.792 10.079 A 13.214 13.214 0 0 1 28.772 10.26 Q 28.687 10.986 28.552 11.646 L 27.002 18.994 L 22.278 18.994 L 23.853 11.45 Q 23.926 11.133 23.999 10.638 Q 24.072 10.144 24.072 9.717 A 1.632 1.632 0 0 0 24.047 9.418 Q 24.016 9.252 23.948 9.123 A 0.776 0.776 0 0 0 23.804 8.929 A 0.892 0.892 0 0 0 23.158 8.667 A 1.22 1.22 0 0 0 22.529 8.845 A 1.704 1.704 0 0 0 22.278 9.027 Q 21.986 9.28 21.727 9.745 A 5.225 5.225 0 0 0 21.515 10.175 A 7.022 7.022 0 0 0 21.275 10.804 Q 21.173 11.113 21.079 11.473 A 16.056 16.056 0 0 0 20.899 12.244 L 19.482 18.994 Z M 50.208 18.994 L 45.483 18.994 L 48.401 5.164 L 52.173 5.164 L 52.026 7.092 L 52.124 7.092 Q 52.568 6.324 53.107 5.851 A 3.6 3.6 0 0 1 53.125 5.835 Q 53.674 5.359 54.364 5.139 A 4.525 4.525 0 0 1 55.175 4.965 A 6.086 6.086 0 0 1 55.933 4.919 A 5.089 5.089 0 0 1 56.799 4.989 Q 57.268 5.07 57.65 5.246 A 2.701 2.701 0 0 1 58.026 5.457 A 3.184 3.184 0 0 1 59.204 6.885 A 4.796 4.796 0 0 1 59.563 8.373 A 5.769 5.769 0 0 1 59.583 8.85 A 11.915 11.915 0 0 1 59.517 10.079 A 13.214 13.214 0 0 1 59.497 10.26 Q 59.412 10.986 59.277 11.646 L 57.727 18.994 L 53.003 18.994 L 54.578 11.45 Q 54.651 11.133 54.724 10.638 Q 54.797 10.144 54.797 9.717 A 1.632 1.632 0 0 0 54.772 9.418 Q 54.741 9.252 54.673 9.123 A 0.776 0.776 0 0 0 54.529 8.929 A 0.892 0.892 0 0 0 53.883 8.667 A 1.161 1.161 0 0 0 53.298 8.829 A 1.702 1.702 0 0 0 52.997 9.052 A 2.348 2.348 0 0 0 52.691 9.397 Q 52.445 9.731 52.228 10.223 A 7.114 7.114 0 0 0 51.98 10.877 Q 51.784 11.473 51.624 12.244 L 50.208 18.994 Z M 65.759 18.994 L 61.035 18.994 L 63.953 5.164 L 67.725 5.164 L 67.578 7.092 L 67.676 7.092 Q 68.12 6.324 68.658 5.851 A 3.6 3.6 0 0 1 68.677 5.835 Q 69.226 5.359 69.916 5.139 A 4.525 4.525 0 0 1 70.727 4.965 A 6.086 6.086 0 0 1 71.484 4.919 A 5.089 5.089 0 0 1 72.351 4.989 Q 72.82 5.07 73.202 5.246 A 2.701 2.701 0 0 1 73.578 5.457 A 3.184 3.184 0 0 1 74.756 6.885 A 4.796 4.796 0 0 1 75.115 8.373 A 5.769 5.769 0 0 1 75.134 8.85 A 11.915 11.915 0 0 1 75.069 10.079 A 13.214 13.214 0 0 1 75.049 10.26 Q 74.963 10.986 74.829 11.646 L 73.279 18.994 L 68.555 18.994 L 70.129 11.45 Q 70.203 11.133 70.276 10.638 Q 70.349 10.144 70.349 9.717 A 1.632 1.632 0 0 0 70.324 9.418 Q 70.293 9.252 70.225 9.123 A 0.776 0.776 0 0 0 70.081 8.929 A 0.892 0.892 0 0 0 69.434 8.667 A 1.161 1.161 0 0 0 68.85 8.829 A 1.702 1.702 0 0 0 68.549 9.052 A 2.348 2.348 0 0 0 68.243 9.397 Q 67.997 9.731 67.78 10.223 A 7.114 7.114 0 0 0 67.532 10.877 Q 67.336 11.473 67.175 12.244 L 65.759 18.994 Z M 15.357 2.466 L 13.55 6.189 Q 12.574 5.612 11.734 5.283 A 8.458 8.458 0 0 0 11.462 5.182 Q 10.51 4.846 9.485 4.846 Q 8.618 4.846 7.892 5.237 A 4.196 4.196 0 0 0 6.784 6.108 A 4.929 4.929 0 0 0 6.598 6.323 A 6.607 6.607 0 0 0 5.843 7.487 A 7.761 7.761 0 0 0 5.634 7.928 A 9.009 9.009 0 0 0 5.118 9.503 A 10.252 10.252 0 0 0 5.035 9.894 A 11.473 11.473 0 0 0 4.834 12.048 A 6.107 6.107 0 0 0 4.895 12.941 Q 4.962 13.396 5.105 13.764 A 2.49 2.49 0 0 0 5.524 14.484 Q 6.213 15.295 7.483 15.295 A 8.442 8.442 0 0 0 9.607 15.027 Q 10.476 14.802 11.55 14.372 A 25.043 25.043 0 0 0 11.975 14.197 L 11.975 18.14 Q 10.669 18.726 9.332 18.982 A 14.453 14.453 0 0 1 6.604 19.238 A 9.454 9.454 0 0 1 5.037 19.116 Q 4.163 18.969 3.444 18.645 A 5.287 5.287 0 0 1 2.905 18.365 A 5.401 5.401 0 0 1 0.72 15.93 Q 0 14.368 0 12.292 Q 0 10.693 0.342 9.07 A 13.186 13.186 0 0 1 1.404 5.975 A 10.107 10.107 0 0 1 3.247 3.351 A 8.196 8.196 0 0 1 5.92 1.532 A 8.051 8.051 0 0 1 7.925 0.976 A 10.651 10.651 0 0 1 9.485 0.867 A 12.958 12.958 0 0 1 11.176 0.972 A 9.748 9.748 0 0 1 12.683 1.288 A 11.543 11.543 0 0 1 15.357 2.466 Z M 99.292 18.469 L 99.292 14.673 Q 100.415 15.283 101.379 15.527 Q 102.344 15.771 103.333 15.771 A 3.836 3.836 0 0 0 103.597 15.762 Q 103.79 15.748 104.016 15.717 A 1.905 1.905 0 0 0 104.414 15.618 A 1.561 1.561 0 0 0 104.7 15.479 A 0.592 0.592 0 0 0 104.982 15.052 A 0.851 0.851 0 0 0 104.993 14.917 A 1.06 1.06 0 0 0 104.943 14.587 A 0.958 0.958 0 0 0 104.865 14.41 A 0.901 0.901 0 0 0 104.761 14.267 Q 104.646 14.135 104.452 13.985 A 3.942 3.942 0 0 0 104.334 13.898 Q 104.025 13.678 103.459 13.355 A 27.18 27.18 0 0 0 103.088 13.147 Q 102.262 12.687 101.721 12.147 A 4.482 4.482 0 0 1 101.685 12.109 A 3.682 3.682 0 0 1 100.981 11.112 A 3.458 3.458 0 0 1 100.873 10.858 A 3.944 3.944 0 0 1 100.654 9.972 A 5.182 5.182 0 0 1 100.61 9.29 Q 100.61 7.983 101.221 7.001 A 3.643 3.643 0 0 1 102.303 5.898 A 4.961 4.961 0 0 1 103.095 5.469 Q 104.358 4.919 106.287 4.919 A 9.898 9.898 0 0 1 107.799 5.03 A 8.056 8.056 0 0 1 108.777 5.243 Q 109.912 5.566 110.962 6.213 L 109.485 9.29 A 7.939 7.939 0 0 0 108.557 8.766 A 9.778 9.778 0 0 0 107.929 8.49 A 5.558 5.558 0 0 0 107.245 8.265 Q 106.884 8.173 106.553 8.15 A 3.131 3.131 0 0 0 106.336 8.142 Q 105.908 8.142 105.658 8.35 A 0.662 0.662 0 0 0 105.44 8.701 Q 105.411 8.812 105.408 8.944 A 1.343 1.343 0 0 0 105.408 8.972 A 0.631 0.631 0 0 0 105.529 9.344 A 0.82 0.82 0 0 0 105.573 9.399 A 1.143 1.143 0 0 0 105.71 9.534 Q 105.858 9.66 106.089 9.788 A 3.729 3.729 0 0 0 106.104 9.796 A 21.461 21.461 0 0 0 106.3 9.903 Q 106.592 10.06 106.987 10.262 A 63.109 63.109 0 0 0 107.044 10.291 Q 107.952 10.739 108.547 11.301 A 4.452 4.452 0 0 1 108.588 11.34 A 4.127 4.127 0 0 1 109.249 12.162 A 3.644 3.644 0 0 1 109.491 12.634 A 3.824 3.824 0 0 1 109.774 13.804 A 4.608 4.608 0 0 1 109.79 14.197 A 6.346 6.346 0 0 1 109.675 15.441 Q 109.495 16.342 109.033 17.023 A 4.4 4.4 0 0 1 107.313 18.503 A 5.503 5.503 0 0 1 106.897 18.689 A 7.367 7.367 0 0 1 105.393 19.101 Q 104.578 19.238 103.638 19.238 A 16.687 16.687 0 0 1 102.41 19.195 Q 101.752 19.147 101.178 19.043 Q 100.098 18.848 99.292 18.469 Z M 82.8 13.843 L 82.08 13.843 L 82.08 13.934 L 82.08 14.038 Q 82.08 14.966 82.581 15.405 Q 83.081 15.845 84.082 15.845 A 6.211 6.211 0 0 0 85.939 15.57 A 5.864 5.864 0 0 0 86.072 15.527 A 12.193 12.193 0 0 0 87.045 15.149 A 16.476 16.476 0 0 0 88.086 14.648 L 88.086 17.993 A 13.179 13.179 0 0 1 85.791 18.896 A 7.619 7.619 0 0 1 84.815 19.105 Q 84.317 19.18 83.742 19.213 A 16.536 16.536 0 0 1 82.8 19.238 Q 81.055 19.238 79.834 18.579 A 4.429 4.429 0 0 1 77.972 16.693 Q 77.332 15.466 77.332 13.77 Q 77.332 12.073 77.814 10.486 Q 78.296 8.899 79.279 7.642 A 7.02 7.02 0 0 1 81.751 5.652 A 6.95 6.95 0 0 1 83.648 5.05 A 9.453 9.453 0 0 1 85.254 4.919 A 8.391 8.391 0 0 1 86.676 5.032 Q 87.469 5.169 88.104 5.47 A 4.175 4.175 0 0 1 88.91 5.969 A 3.341 3.341 0 0 1 90.219 8.391 A 4.32 4.32 0 0 1 90.234 8.765 A 5.181 5.181 0 0 1 90.08 10.052 A 4.447 4.447 0 0 1 89.795 10.846 A 4.118 4.118 0 0 1 88.725 12.229 A 4.981 4.981 0 0 1 88.446 12.451 A 5.507 5.507 0 0 1 87.418 13.043 Q 86.919 13.265 86.329 13.43 A 9.614 9.614 0 0 1 86.133 13.483 A 10.609 10.609 0 0 1 84.804 13.729 Q 84.115 13.814 83.332 13.836 A 19.501 19.501 0 0 1 82.8 13.843 Z M 40.405 6.873 L 40.503 6.873 L 41.15 5.164 L 44.934 5.164 L 42.004 18.994 L 38.232 18.994 L 38.355 17.493 L 38.257 17.493 A 5.134 5.134 0 0 1 37.453 18.384 A 4.84 4.84 0 0 1 37.439 18.396 A 3.454 3.454 0 0 1 36.451 18.991 A 3.906 3.906 0 0 1 36.395 19.012 A 3.247 3.247 0 0 1 35.769 19.178 Q 35.475 19.227 35.141 19.236 A 5.692 5.692 0 0 1 34.985 19.238 A 3.955 3.955 0 0 1 33.026 18.738 A 3.076 3.076 0 0 1 32.077 17.899 Q 31.807 17.545 31.594 17.087 A 5.596 5.596 0 0 1 31.592 17.084 Q 31.207 16.257 31.098 15.013 A 12.029 12.029 0 0 1 31.055 13.965 A 10.073 10.073 0 0 1 31.122 12.833 A 13.517 13.517 0 0 1 31.293 11.743 Q 31.531 10.535 32.013 9.332 Q 32.495 8.13 33.228 7.129 A 6.084 6.084 0 0 1 34.591 5.764 A 5.69 5.69 0 0 1 34.955 5.524 A 4.186 4.186 0 0 1 36.935 4.927 A 5.062 5.062 0 0 1 37.207 4.919 A 4.357 4.357 0 0 1 37.885 4.97 Q 38.263 5.029 38.582 5.159 A 2.693 2.693 0 0 1 38.593 5.164 A 3.249 3.249 0 0 1 39.63 5.841 A 4.227 4.227 0 0 1 40.256 6.619 A 4.943 4.943 0 0 1 40.405 6.873 Z M 95.789 18.994 L 91.065 18.994 L 95.081 0 L 99.805 0 L 95.789 18.994 Z M 36.926 15.442 A 1.175 1.175 0 0 0 37.594 15.229 Q 37.757 15.119 37.91 14.953 A 2.244 2.244 0 0 0 37.915 14.948 Q 38.367 14.453 38.69 13.672 A 7.489 7.489 0 0 0 39.131 12.166 A 8.371 8.371 0 0 0 39.16 12 A 8.008 8.008 0 0 0 39.27 11.237 A 8.043 8.043 0 0 0 39.307 10.474 A 4.101 4.101 0 0 0 39.277 9.965 Q 39.245 9.712 39.18 9.501 A 1.856 1.856 0 0 0 39.056 9.198 A 1.031 1.031 0 0 0 38.871 8.939 Q 38.646 8.716 38.306 8.716 A 1.101 1.101 0 0 0 37.772 8.858 A 1.511 1.511 0 0 0 37.555 9.003 A 2.517 2.517 0 0 0 37.209 9.341 Q 37.063 9.512 36.928 9.723 A 4.233 4.233 0 0 0 36.89 9.784 A 5.336 5.336 0 0 0 36.555 10.423 A 6.767 6.767 0 0 0 36.359 10.919 A 8.685 8.685 0 0 0 36.021 12.18 A 9.519 9.519 0 0 0 36.005 12.268 Q 35.877 12.976 35.877 13.696 A 4.354 4.354 0 0 0 35.901 14.173 Q 35.956 14.674 36.137 14.988 A 1.369 1.369 0 0 0 36.139 14.99 Q 36.379 15.403 36.837 15.438 A 1.145 1.145 0 0 0 36.926 15.442 Z M 82.556 10.889 L 82.91 10.889 A 6.524 6.524 0 0 0 83.56 10.858 Q 83.868 10.827 84.127 10.765 A 2.66 2.66 0 0 0 84.595 10.608 A 2.748 2.748 0 0 0 84.981 10.398 Q 85.186 10.262 85.332 10.101 A 1.433 1.433 0 0 0 85.486 9.9 A 1.874 1.874 0 0 0 85.674 9.513 A 1.43 1.43 0 0 0 85.754 9.045 A 1.034 1.034 0 0 0 85.697 8.696 A 0.912 0.912 0 0 0 85.51 8.386 A 0.74 0.74 0 0 0 85.211 8.191 Q 85.092 8.148 84.944 8.13 A 1.805 1.805 0 0 0 84.729 8.118 A 1.39 1.39 0 0 0 83.927 8.376 A 1.906 1.906 0 0 0 83.716 8.545 A 3.272 3.272 0 0 0 83.131 9.269 A 3.992 3.992 0 0 0 82.947 9.613 A 4.536 4.536 0 0 0 82.641 10.452 A 3.913 3.913 0 0 0 82.556 10.889 Z" vector-effect="non-scaling-stroke"/></g></svg>